<svg width="540" height="144" viewBox="0 0 540 144" fill="none" xmlns="http://www.w3.org/2000/svg">
  <rect width="540" height="144" rx="32" fill="#FFFFFF"/>
  <g transform="translate(26 16)">
    <defs>
      <linearGradient id="logoPinGradient" x1="16" y1="10" x2="82" y2="92" gradientUnits="userSpaceOnUse">
        <stop stop-color="#FF5A7A"/>
        <stop offset="0.32" stop-color="#FF6B8A"/>
        <stop offset="0.72" stop-color="#7C4DFF"/>
        <stop offset="1" stop-color="#5B3DF5"/>
      </linearGradient>
      <linearGradient id="logoCheckGradient" x1="39" y1="30" x2="55" y2="46" gradientUnits="userSpaceOnUse">
        <stop stop-color="#FF5A7A"/>
        <stop offset="1" stop-color="#7C4DFF"/>
      </linearGradient>
      <mask id="logoTicketMask">
        <rect x="24" y="24" width="48" height="34" rx="10" fill="white"/>
        <circle cx="24" cy="41" r="5" fill="black"/>
        <circle cx="72" cy="41" r="5" fill="black"/>
      </mask>
    </defs>
    <path d="M48 104C45.2 104 42.55 102.77 40.74 100.67C32.73 91.38 16 71.05 16 48C16 30.33 30.33 16 48 16C65.67 16 80 30.33 80 48C80 71.05 63.27 91.38 55.26 100.67C53.45 102.77 50.8 104 48 104Z" fill="url(#logoPinGradient)"/>
    <circle cx="48" cy="41" r="28" fill="white" fill-opacity="0.12"/>
    <rect x="24" y="24" width="48" height="34" rx="10" fill="white" fill-opacity="0.98" mask="url(#logoTicketMask)"/>
    <path d="M30 28.5H58" stroke="white" stroke-opacity="0.6" stroke-width="2.4" stroke-linecap="round"/>
    <path d="M36.5 40.5L45 48.5L60 32.5" stroke="url(#logoCheckGradient)" stroke-width="6" stroke-linecap="round" stroke-linejoin="round"/>
  </g>
  <text x="136" y="82" fill="#101828" font-family="Poppins, Arial, sans-serif" font-size="54" font-weight="800" letter-spacing="-2.6">Events</text>
  <text x="336" y="82" fill="#101828" font-family="Poppins, Arial, sans-serif" font-size="54" font-weight="800" letter-spacing="-2.6">Hub</text>
</svg>
