<svg width="1280" height="720" viewBox="0 0 1280 720" fill="none" xmlns="http://www.w3.org/2000/svg">
  <rect width="1280" height="720" rx="40" fill="#F6F7FB"/>
  <rect x="52" y="52" width="1176" height="616" rx="34" fill="white"/>
  <text x="96" y="132" fill="#64748B" font-family="Poppins, Arial, sans-serif" font-size="28" font-weight="600">Logo Concept 01</text>
  <text x="96" y="170" fill="#111827" font-family="Poppins, Arial, sans-serif" font-size="20" font-weight="500">Connected event network mark with premium gradient wordmark</text>

  <rect x="112" y="234" width="154" height="154" rx="42" fill="url(#g1)"/>
  <rect x="150" y="272" width="34" height="34" rx="10" fill="white" fill-opacity="0.96"/>
  <rect x="194" y="316" width="34" height="34" rx="10" fill="white" fill-opacity="0.96"/>
  <rect x="173" y="311" width="33" height="6" rx="3" fill="white" fill-opacity="0.92"/>
  <rect x="186" y="298" width="6" height="33" rx="3" fill="white" fill-opacity="0.92"/>

  <text x="320" y="318" fill="url(#word1)" font-family="Poppins, Arial, sans-serif" font-size="98" font-weight="800" letter-spacing="-4">Events</text>
  <text x="726" y="318" fill="#111827" font-family="Poppins, Arial, sans-serif" font-size="98" font-weight="800" letter-spacing="-4">Hub</text>
  <text x="324" y="382" fill="#6B7280" font-family="Poppins, Arial, sans-serif" font-size="32" font-weight="500">Event check-in, ticketing, and guest operations</text>

  <rect x="112" y="466" width="1056" height="114" rx="28" fill="#F8FAFC"/>
  <text x="154" y="522" fill="#111827" font-family="Poppins, Arial, sans-serif" font-size="26" font-weight="700">Best for:</text>
  <text x="284" y="522" fill="#4B5563" font-family="Poppins, Arial, sans-serif" font-size="26" font-weight="500">A polished SaaS identity that still feels event-focused and modern.</text>

  <defs>
    <linearGradient id="g1" x1="130" y1="248" x2="246" y2="374" gradientUnits="userSpaceOnUse">
      <stop stop-color="#FF9D6C"/>
      <stop offset="0.45" stop-color="#FF6B6B"/>
      <stop offset="1" stop-color="#6D5EFC"/>
    </linearGradient>
    <linearGradient id="word1" x1="320" y1="248" x2="710" y2="336" gradientUnits="userSpaceOnUse">
      <stop stop-color="#FF8E63"/>
      <stop offset="0.55" stop-color="#FF6B6B"/>
      <stop offset="1" stop-color="#7B61FF"/>
    </linearGradient>
  </defs>
</svg>
