<svg width="96" height="112" viewBox="0 0 96 112" fill="none" xmlns="http://www.w3.org/2000/svg">
  <defs>
    <linearGradient id="markPinGradient" x1="16" y1="10" x2="82" y2="92" gradientUnits="userSpaceOnUse">
      <stop stop-color="#FF5A7A"/>
      <stop offset="0.32" stop-color="#FF6B8A"/>
      <stop offset="0.72" stop-color="#7C4DFF"/>
      <stop offset="1" stop-color="#5B3DF5"/>
    </linearGradient>
    <radialGradient id="markHighlight" cx="0" cy="0" r="1" gradientUnits="userSpaceOnUse" gradientTransform="translate(34 22) rotate(42.2) scale(42 31)">
      <stop stop-color="#FFFFFF" stop-opacity="0.62"/>
      <stop offset="1" stop-color="#FFFFFF" stop-opacity="0"/>
    </radialGradient>
    <radialGradient id="markOrb" cx="0" cy="0" r="1" gradientUnits="userSpaceOnUse" gradientTransform="translate(48 39) rotate(90) scale(29)">
      <stop stop-color="#FFFFFF" stop-opacity="0.24"/>
      <stop offset="0.72" stop-color="#FFFFFF" stop-opacity="0.08"/>
      <stop offset="1" stop-color="#FFFFFF" stop-opacity="0"/>
    </radialGradient>
    <linearGradient id="markRim" x1="20" y1="18" x2="73" y2="98" gradientUnits="userSpaceOnUse">
      <stop stop-color="#FFFFFF" stop-opacity="0.34"/>
      <stop offset="0.45" stop-color="#FFFFFF" stop-opacity="0.08"/>
      <stop offset="1" stop-color="#FFFFFF" stop-opacity="0.18"/>
    </linearGradient>
    <linearGradient id="markTicket" x1="29" y1="27" x2="70" y2="58" gradientUnits="userSpaceOnUse">
      <stop stop-color="#FFFFFF"/>
      <stop offset="1" stop-color="#FFF3FA"/>
    </linearGradient>
    <linearGradient id="markCheck" x1="39" y1="30" x2="55" y2="46" gradientUnits="userSpaceOnUse">
      <stop stop-color="#FF5A7A"/>
      <stop offset="1" stop-color="#7C4DFF"/>
    </linearGradient>
    <filter id="markGlow" x="2" y="4" width="92" height="104" filterUnits="userSpaceOnUse" color-interpolation-filters="sRGB">
      <feFlood flood-opacity="0" result="BackgroundImageFix"/>
      <feGaussianBlur in="SourceGraphic" stdDeviation="4.5" result="blurred"/>
      <feColorMatrix in="blurred" type="matrix" values="1 0 0 0 0 0 0.36 0 0 0 0 0 1 0 0 0 0 0 0.22 0" result="shadow"/>
      <feBlend in="shadow" in2="SourceGraphic" mode="normal"/>
    </filter>
    <filter id="markTicketShadow" x="20" y="20" width="56" height="43" filterUnits="userSpaceOnUse" color-interpolation-filters="sRGB">
      <feFlood flood-opacity="0" result="BackgroundImageFix"/>
      <feOffset dy="3"/>
      <feGaussianBlur stdDeviation="2.5"/>
      <feColorMatrix type="matrix" values="0 0 0 0 0.32549 0 0 0 0 0.215686 0 0 0 0 0.921569 0 0 0 0.22 0"/>
      <feBlend in2="BackgroundImageFix" result="effect1_dropShadow_1_1"/>
      <feBlend in="SourceGraphic" in2="effect1_dropShadow_1_1" result="shape"/>
    </filter>
    <mask id="markTicketMask">
      <rect x="24" y="24" width="48" height="34" rx="10" fill="white"/>
      <circle cx="24" cy="41" r="5" fill="black"/>
      <circle cx="72" cy="41" r="5" fill="black"/>
    </mask>
  </defs>
  <g filter="url(#markGlow)">
    <path d="M48 104C45.2 104 42.55 102.77 40.74 100.67C32.73 91.38 16 71.05 16 48C16 30.33 30.33 16 48 16C65.67 16 80 30.33 80 48C80 71.05 63.27 91.38 55.26 100.67C53.45 102.77 50.8 104 48 104Z" fill="url(#markPinGradient)"/>
    <path d="M48 104C45.2 104 42.55 102.77 40.74 100.67C32.73 91.38 16 71.05 16 48C16 30.33 30.33 16 48 16C65.67 16 80 30.33 80 48C80 71.05 63.27 91.38 55.26 100.67C53.45 102.77 50.8 104 48 104Z" fill="url(#markHighlight)"/>
    <circle cx="48" cy="41" r="28" fill="url(#markOrb)"/>
  </g>
  <path d="M48 104C45.2 104 42.55 102.77 40.74 100.67C32.73 91.38 16 71.05 16 48C16 30.33 30.33 16 48 16C65.67 16 80 30.33 80 48C80 71.05 63.27 91.38 55.26 100.67C53.45 102.77 50.8 104 48 104Z" stroke="url(#markRim)" stroke-width="1.5"/>
  <g filter="url(#markTicketShadow)">
    <rect x="24" y="24" width="48" height="34" rx="10" fill="url(#markTicket)" mask="url(#markTicketMask)"/>
  </g>
  <path d="M30 28.5H58" stroke="white" stroke-opacity="0.62" stroke-width="2.4" stroke-linecap="round"/>
  <path d="M36.5 40.5L45 48.5L60 32.5" stroke="url(#markCheck)" stroke-width="6" stroke-linecap="round" stroke-linejoin="round"/>
  <path d="M48 98C44.6 98 41.4 96.5 39.16 93.94C30.9 84.48 21 70.7 21 53.71" stroke="white" stroke-opacity="0.24" stroke-width="2.7" stroke-linecap="round"/>
  <ellipse cx="48" cy="105.5" rx="15" ry="4.5" fill="#5B3DF5" fill-opacity="0.14"/>
</svg>
